<svg xmlns="http://www.w3.org/2000/svg" width="16.772" height="16.771" viewBox="0 0 16.772 16.771">
  <path id="Icon_ionic-ios-call" data-name="Icon ionic-ios-call" d="M20.778,17.634a14.088,14.088,0,0,0-2.943-1.969c-.882-.424-1.205-.415-1.829.035-.52.375-.856.725-1.454.594a8.673,8.673,0,0,1-2.921-2.161,8.611,8.611,0,0,1-2.161-2.921c-.127-.6.223-.934.594-1.454.45-.624.463-.947.035-1.829A13.809,13.809,0,0,0,8.129,4.986c-.642-.642-.786-.5-1.14-.375a6.485,6.485,0,0,0-1.044.555A3.148,3.148,0,0,0,4.693,6.488c-.249.537-.537,1.537.93,4.148a23.145,23.145,0,0,0,4.069,5.427h0l0,0,0,0h0a23.235,23.235,0,0,0,5.427,4.069c2.611,1.467,3.611,1.179,4.148.93A3.094,3.094,0,0,0,20.6,19.817a6.485,6.485,0,0,0,.555-1.044C21.28,18.42,21.424,18.276,20.778,17.634Z" transform="translate(-4.49 -4.502)" fill="#1570a5"/>
</svg>
