<svg xmlns="http://www.w3.org/2000/svg" width="23.571" height="15" viewBox="0 0 23.571 15">
  <path id="Icon_material-group" data-name="Icon material-group" d="M17.571,13.929a3.214,3.214,0,1,0-3.214-3.214A3.2,3.2,0,0,0,17.571,13.929ZM9,13.929a3.214,3.214,0,1,0-3.214-3.214A3.2,3.2,0,0,0,9,13.929Zm0,2.143c-2.5,0-7.5,1.254-7.5,3.75V22.5h15V19.821C16.5,17.325,11.5,16.071,9,16.071Zm8.571,0c-.311,0-.664.021-1.039.054a4.521,4.521,0,0,1,2.111,3.7V22.5h6.429V19.821C25.071,17.325,20.068,16.071,17.571,16.071Z" transform="translate(-1.5 -7.5)" fill="#1570a5"/>
</svg>
