<svg xmlns="http://www.w3.org/2000/svg" width="12.772" height="12.771" viewBox="0 0 12.772 12.771">
  <path id="Icon_ionic-ios-call" data-name="Icon ionic-ios-call" d="M16.893,14.5A10.728,10.728,0,0,0,14.652,13c-.672-.323-.918-.316-1.393.027-.4.286-.652.552-1.107.452a6.6,6.6,0,0,1-2.224-1.646A6.557,6.557,0,0,1,8.282,9.612c-.1-.459.17-.712.452-1.107.342-.475.352-.722.027-1.393a10.516,10.516,0,0,0-1.5-2.241c-.489-.489-.6-.382-.868-.286a4.938,4.938,0,0,0-.795.422,2.4,2.4,0,0,0-.954,1.007c-.19.409-.409,1.17.708,3.159a17.625,17.625,0,0,0,3.1,4.133h0l0,0,0,0h0a17.694,17.694,0,0,0,4.133,3.1c1.988,1.117,2.75.9,3.159.708a2.356,2.356,0,0,0,1.007-.954,4.938,4.938,0,0,0,.422-.795C17.276,15.1,17.385,14.991,16.893,14.5Z" transform="translate(-4.49 -4.503)"/>
</svg>
