<svg xmlns="http://www.w3.org/2000/svg" width="15.558" height="18.152" viewBox="0 0 15.558 18.152">
  <path id="Icon_metro-language" data-name="Icon metro-language" d="M11.394,13.123q-.01.03-.127-.005T10.949,13l-.2-.091a6.069,6.069,0,0,1-.881-.5q-.071-.051-.415-.319t-.385-.289a17.256,17.256,0,0,1-1.357,1.833,7.53,7.53,0,0,1-1.064,1.114.8.8,0,0,1-.2.041.39.39,0,0,1-.187,0q.061-.041.831-.932.213-.243.866-1.165a14.162,14.162,0,0,0,.8-1.2q.172-.3.517-1a7.9,7.9,0,0,0,.365-.785,8.324,8.324,0,0,0-1.114.334q-.081.02-.279.076l-.349.1a1.735,1.735,0,0,0-.172.051.172.172,0,0,0-.02.106.225.225,0,0,1-.01.1q-.051.1-.314.152a.817.817,0,0,1-.476,0,.427.427,0,0,1-.284-.213.515.515,0,0,1-.051-.233,1.958,1.958,0,0,1,.248-.051,3.024,3.024,0,0,0,.3-.061Q7.7,9.912,8.173,9.75,9.186,9.4,9.206,9.4a2.247,2.247,0,0,0,.436-.2,4.582,4.582,0,0,1,.446-.218q.091-.03.218-.081t.147-.056a.136.136,0,0,1,.061.005,1.153,1.153,0,0,1-.01.334,2.157,2.157,0,0,1-.127.273q-.127.253-.268.542t-.172.339a15.192,15.192,0,0,1-.78,1.327l.648.284q.122.061.755.324l.684.284q.041.01.106.258a.767.767,0,0,1,.046.309ZM9.318,8.2a.411.411,0,0,1-.041.284.918.918,0,0,1-.506.385,1.626,1.626,0,0,1-.608.122.838.838,0,0,1-.5-.263.762.762,0,0,1-.182-.415l.01-.03a.433.433,0,0,0,.2.051.881.881,0,0,0,.268,0q.1-.02.587-.162a2.892,2.892,0,0,1,.557-.142.2.2,0,0,1,.213.172Zm7.07,1.307.638,2.3-1.408-.425ZM5.165,17.61l7.03-2.35V4.807l-7.03,2.36V17.61ZM17.735,14.4l1.033.314L16.935,8.058l-1.013-.314-2.188,5.429,1.033.314.456-1.114,2.137.658Zm-5.1-9.744,5.8,1.864V2.669Zm3.15,13.4,1.6.132-.547,1.621-.405-.669a7.509,7.509,0,0,1-2.8,1.094,4.855,4.855,0,0,1-.922.122H11.87a6.846,6.846,0,0,1-2.021-.4A6.726,6.726,0,0,1,7.991,19.1a.211.211,0,0,1-.081-.162.2.2,0,0,1,.051-.137.17.17,0,0,1,.132-.056.57.57,0,0,1,.182.076l.309.167.208.111a8.974,8.974,0,0,0,1.616.623,5.9,5.9,0,0,0,1.6.248,8.644,8.644,0,0,0,1.692-.147,8.348,8.348,0,0,0,1.59-.512q.152-.071.309-.157t.344-.192q.187-.106.289-.167ZM20.328,7.126V18.056l-7.84-2.492q-.142.061-3.8,1.291T4.962,18.086a.183.183,0,0,1-.182-.132.078.078,0,0,0-.01-.03V7a.452.452,0,0,1,.041-.1.456.456,0,0,1,.2-.111q1.074-.355,1.509-.506V2.4L12.174,4.4q.02,0,1.626-.557t3.2-1.1Q18.6,2.2,18.637,2.2q.2,0,.2.213V6.65Z" transform="translate(-4.77 -2.203)" fill="#1570a5"/>
</svg>
