<svg xmlns="http://www.w3.org/2000/svg" width="20.5" height="13.667" viewBox="0 0 20.5 13.667">
  <path id="Icon_awesome-newspaper" data-name="Icon awesome-newspaper" d="M19.646,4.5H3.132a.854.854,0,0,0-.854.854v.285H.854A.854.854,0,0,0,0,6.493v9.681a1.993,1.993,0,0,0,1.993,1.993h16.8A1.708,1.708,0,0,0,20.5,16.458V5.354A.854.854,0,0,0,19.646,4.5ZM1.993,16.458a.285.285,0,0,1-.285-.285V7.347h.569v8.826A.285.285,0,0,1,1.993,16.458Zm8.4-.569H4.983a.427.427,0,0,1-.427-.427v-.285a.427.427,0,0,1,.427-.427h5.41a.427.427,0,0,1,.427.427v.285A.427.427,0,0,1,10.392,15.889Zm7.4,0h-5.41a.427.427,0,0,1-.427-.427v-.285a.427.427,0,0,1,.427-.427H17.8a.427.427,0,0,1,.427.427v.285A.427.427,0,0,1,17.8,15.889Zm-7.4-3.417H4.983a.427.427,0,0,1-.427-.427V11.76a.427.427,0,0,1,.427-.427h5.41a.427.427,0,0,1,.427.427v.285A.427.427,0,0,1,10.392,12.472Zm7.4,0h-5.41a.427.427,0,0,1-.427-.427V11.76a.427.427,0,0,1,.427-.427H17.8a.427.427,0,0,1,.427.427v.285A.427.427,0,0,1,17.8,12.472Zm0-3.417H4.983a.427.427,0,0,1-.427-.427V7.2a.427.427,0,0,1,.427-.427H17.8a.427.427,0,0,1,.427.427V8.628A.427.427,0,0,1,17.8,9.056Z" transform="translate(0 -4.5)" fill="#1570a5"/>
</svg>
