<svg xmlns="http://www.w3.org/2000/svg" width="37.451" height="37.451" viewBox="0 0 37.451 37.451">
  <path id="material-symbols_person" d="M22.725,22.725a9.016,9.016,0,0,1-6.612-2.75,9.016,9.016,0,0,1-2.75-6.612,9.016,9.016,0,0,1,2.75-6.612A9.016,9.016,0,0,1,22.725,4a9.016,9.016,0,0,1,6.612,2.75,9.016,9.016,0,0,1,2.75,6.612,9.016,9.016,0,0,1-2.75,6.612A9.016,9.016,0,0,1,22.725,22.725ZM4,41.451V34.9a6.982,6.982,0,0,1,3.745-6.2,34.8,34.8,0,0,1,7.373-2.722,32.4,32.4,0,0,1,15.214,0,34.794,34.794,0,0,1,7.373,2.722,6.982,6.982,0,0,1,3.745,6.2v6.554Z" transform="translate(-4 -4)" fill="#1570a5"/>
</svg>
