<svg xmlns="http://www.w3.org/2000/svg" width="17.565" height="20.492" viewBox="0 0 17.565 20.492">
  <path id="Icon_metro-language" data-name="Icon metro-language" d="M12.249,14.531q-.011.034-.143-.006t-.36-.131l-.229-.1a6.852,6.852,0,0,1-.995-.56q-.08-.057-.469-.36t-.435-.326a19.482,19.482,0,0,1-1.532,2.07,8.5,8.5,0,0,1-1.2,1.258.906.906,0,0,1-.223.046.44.44,0,0,1-.212,0q.069-.046.938-1.052.24-.274.978-1.315a15.987,15.987,0,0,0,.9-1.349q.194-.343.583-1.126a8.914,8.914,0,0,0,.412-.886A9.4,9.4,0,0,0,9,11.066q-.091.023-.314.086l-.395.109a1.959,1.959,0,0,0-.194.057.194.194,0,0,0-.023.12.254.254,0,0,1-.011.109q-.057.114-.355.172a.922.922,0,0,1-.537,0,.482.482,0,0,1-.32-.24.582.582,0,0,1-.057-.263,2.21,2.21,0,0,1,.28-.057,3.414,3.414,0,0,0,.337-.069q.663-.183,1.2-.366,1.144-.4,1.166-.4a2.537,2.537,0,0,0,.492-.223,5.172,5.172,0,0,1,.5-.246q.1-.034.246-.091t.166-.063a.153.153,0,0,1,.069.006,1.3,1.3,0,0,1-.011.377,2.435,2.435,0,0,1-.143.309q-.143.286-.3.612t-.194.383a17.151,17.151,0,0,1-.881,1.5l.732.32q.137.069.852.366l.772.32q.046.011.12.292a.866.866,0,0,1,.051.349ZM9.9,8.973a.464.464,0,0,1-.046.32,1.037,1.037,0,0,1-.572.435,1.836,1.836,0,0,1-.686.137.946.946,0,0,1-.56-.3A.86.86,0,0,1,7.835,9.1l.011-.034a.489.489,0,0,0,.223.057,1,1,0,0,0,.3,0q.114-.023.663-.183a3.265,3.265,0,0,1,.629-.16.226.226,0,0,1,.24.194Zm7.982,1.475.72,2.6-1.59-.48ZM5.216,19.6l7.936-2.653V5.142L5.216,7.807V19.6Zm14.191-3.625,1.166.354L18.5,8.813,17.36,8.459l-2.47,6.129,1.166.354.515-1.258,2.413.743Zm-5.752-11,6.553,2.1V2.73ZM17.212,20.1l1.807.149-.618,1.83-.457-.755a8.477,8.477,0,0,1-3.156,1.235,5.481,5.481,0,0,1-1.041.137h-.961A7.729,7.729,0,0,1,10.5,22.25a7.594,7.594,0,0,1-2.1-.972.238.238,0,0,1-.091-.183.221.221,0,0,1,.057-.154.192.192,0,0,1,.149-.063.644.644,0,0,1,.206.086l.349.189q.189.1.234.126a10.132,10.132,0,0,0,1.824.7,6.663,6.663,0,0,0,1.8.28,9.758,9.758,0,0,0,1.91-.166,9.425,9.425,0,0,0,1.8-.577q.172-.08.349-.177t.389-.217q.212-.12.326-.189ZM22.335,7.761V20.1l-8.851-2.813q-.16.069-4.288,1.458T4.987,20.134a.207.207,0,0,1-.206-.149.088.088,0,0,0-.011-.034V7.624a.51.51,0,0,1,.046-.114.514.514,0,0,1,.229-.126q1.212-.4,1.7-.572V2.421l6.381,2.264q.023,0,1.835-.629t3.614-1.241q1.8-.612,1.847-.612.229,0,.229.24v4.78Z" transform="translate(-4.77 -2.203)" fill="#fff"/>
</svg>
